<svg width="82" height="14" viewBox="0 0 82 14" fill="none" xmlns="http://www.w3.org/2000/svg">
<path d="M6.81108 3.89062C6.83759 3.5161 6.73816 3.22609 6.51278 3.0206C6.29072 2.8151 5.93939 2.71236 5.45881 2.71236C5.14063 2.71236 4.86884 2.75379 4.64347 2.83665C4.41809 2.91619 4.24077 3.02888 4.11151 3.17472C3.98224 3.31723 3.90104 3.48295 3.8679 3.67188C3.83807 3.82102 3.84635 3.9536 3.89276 4.0696C3.93916 4.18561 4.02036 4.28835 4.13636 4.37784C4.25568 4.46733 4.40317 4.54522 4.57884 4.61151C4.75781 4.67779 4.95833 4.7358 5.1804 4.78551L6.01562 4.98438C6.49953 5.09375 6.9188 5.23958 7.27344 5.42188C7.63139 5.60085 7.9214 5.81794 8.14347 6.07315C8.36553 6.32505 8.51799 6.61506 8.60085 6.94318C8.68371 7.27131 8.69034 7.6392 8.62074 8.04688C8.51468 8.68987 8.26113 9.24171 7.86009 9.70241C7.46236 10.1631 6.942 10.5161 6.29901 10.7614C5.65933 11.0066 4.91525 11.1293 4.06676 11.1293C3.21828 11.1293 2.4974 11.0017 1.90412 10.7464C1.31416 10.4879 0.8866 10.0985 0.621449 9.57812C0.356297 9.05777 0.285038 8.40152 0.40767 7.60938H2.75923C2.72277 7.9375 2.7642 8.21094 2.88352 8.42969C3.00616 8.64844 3.19508 8.81416 3.45028 8.92685C3.70549 9.03954 4.01373 9.09588 4.375 9.09588C4.70644 9.09588 4.99645 9.05114 5.24503 8.96165C5.49692 8.87216 5.69744 8.74787 5.84659 8.58878C5.99905 8.42969 6.09186 8.2474 6.125 8.0419C6.15814 7.85298 6.12666 7.68892 6.03054 7.54972C5.93774 7.41051 5.77865 7.28954 5.55327 7.18679C5.3312 7.08404 5.03954 6.99124 4.67827 6.90838L3.65909 6.6598C2.81724 6.45431 2.17921 6.12618 1.74503 5.67543C1.31416 5.22467 1.1617 4.61316 1.28764 3.84091C1.3937 3.20786 1.65554 2.65436 2.07315 2.1804C2.49408 1.70644 3.02604 1.33854 3.66903 1.0767C4.31534 0.811553 5.02628 0.678977 5.80185 0.678977C6.59067 0.678977 7.25355 0.81321 7.79048 1.08168C8.33073 1.34683 8.72017 1.72135 8.95881 2.20526C9.20076 2.68584 9.27036 3.24763 9.16761 3.89062H6.81108ZM12.5483 6.64489L11.8224 11H9.39134L11.0817 0.818182H13.4332L12.7869 4.76562H12.8714C13.1167 4.29498 13.4581 3.92708 13.8956 3.66193C14.3331 3.39678 14.8402 3.2642 15.4169 3.2642C15.9472 3.2642 16.3913 3.38352 16.7493 3.62216C17.1072 3.85748 17.3608 4.19058 17.5099 4.62145C17.6591 5.05232 17.6856 5.55611 17.5895 6.13281L16.7741 11H14.343L15.0788 6.61009C15.1451 6.18584 15.0904 5.8544 14.9148 5.61577C14.7391 5.37713 14.4574 5.25781 14.0696 5.25781C13.8144 5.25781 13.5791 5.31416 13.3636 5.42685C13.1515 5.53622 12.9742 5.69366 12.8317 5.89915C12.6892 6.10464 12.5947 6.35322 12.5483 6.64489ZM21.8365 11.1442C21.0311 11.1442 20.3665 10.9785 19.8429 10.647C19.3225 10.3156 18.9563 9.85322 18.7441 9.25994C18.532 8.66667 18.4906 7.97727 18.6199 7.19176C18.7491 6.40956 19.0159 5.72348 19.4203 5.13352C19.8246 4.54356 20.3417 4.08452 20.9714 3.75639C21.6011 3.42827 22.3154 3.2642 23.1142 3.2642C23.9163 3.2642 24.5775 3.42992 25.0978 3.76136C25.6215 4.0928 25.9894 4.55516 26.2015 5.14844C26.417 5.74171 26.4601 6.43277 26.3308 7.22159C26.2015 8.00379 25.9331 8.68987 25.5254 9.27983C25.1177 9.86648 24.6007 10.3239 23.9743 10.652C23.3478 10.9801 22.6352 11.1442 21.8365 11.1442ZM22.1099 9.30966C22.4082 9.30966 22.675 9.22017 22.9103 9.04119C23.149 8.86222 23.3495 8.61198 23.5119 8.29048C23.6743 7.96899 23.7903 7.59612 23.8599 7.17188C23.9295 6.75426 23.9361 6.38802 23.8798 6.07315C23.8268 5.75497 23.7141 5.50805 23.5417 5.33239C23.3694 5.15341 23.1357 5.06392 22.8407 5.06392C22.5424 5.06392 22.274 5.15507 22.0353 5.33736C21.7967 5.51634 21.5962 5.76657 21.4338 6.08807C21.2747 6.40625 21.1603 6.77912 21.0907 7.20668C21.0211 7.62429 21.0128 7.99053 21.0659 8.3054C21.1189 8.62027 21.2333 8.86719 21.4089 9.04616C21.5846 9.22183 21.8182 9.30966 22.1099 9.30966ZM30.4945 11.1442C29.6957 11.1442 29.0328 10.9867 28.5059 10.6719C27.9822 10.3537 27.6143 9.90128 27.4022 9.31463C27.19 8.72467 27.1519 8.02367 27.2878 7.21165C27.4204 6.42282 27.6905 5.73343 28.0982 5.14347C28.5092 4.55019 29.0262 4.08949 29.6493 3.76136C30.2724 3.42992 30.9668 3.2642 31.7324 3.2642C32.276 3.2642 32.7582 3.34872 33.1792 3.51776C33.6001 3.68679 33.9481 3.93868 34.2232 4.27344C34.4983 4.60488 34.6855 5.01255 34.785 5.49645C34.8844 5.98035 34.8811 6.53551 34.775 7.16193L34.6806 7.76847H28.0485L28.2722 6.35653H32.6472C32.687 6.09801 32.6654 5.86766 32.5826 5.66548C32.4997 5.4633 32.3655 5.30587 32.1799 5.19318C31.9976 5.07718 31.7739 5.01918 31.5087 5.01918C31.2402 5.01918 30.9883 5.08215 30.753 5.2081C30.521 5.33073 30.3238 5.49645 30.1614 5.70526C29.999 5.91406 29.8929 6.14938 29.8432 6.41122L29.5797 7.85795C29.5267 8.17945 29.5416 8.45455 29.6245 8.68324C29.7073 8.91193 29.8498 9.08759 30.052 9.21023C30.2542 9.32955 30.5144 9.3892 30.8326 9.3892C31.0447 9.3892 31.2435 9.36103 31.4292 9.30469C31.6148 9.24503 31.7805 9.1572 31.9263 9.04119C32.0755 8.92187 32.1964 8.7777 32.2892 8.60866L34.5066 8.6733C34.3276 9.17377 34.0508 9.60961 33.6763 9.98082C33.3018 10.3487 32.8444 10.6354 32.3042 10.8409C31.7672 11.0431 31.164 11.1442 30.4945 11.1442ZM42.9123 5.69531L40.7198 5.75497C40.7231 5.59257 40.6867 5.45005 40.6104 5.32741C40.5342 5.20147 40.4265 5.10369 40.2873 5.03409C40.1481 4.96449 39.9824 4.92969 39.7901 4.92969C39.4786 4.92969 39.1985 4.99929 38.9499 5.13849C38.7047 5.2777 38.5671 5.45833 38.5373 5.6804C38.5141 5.79972 38.5472 5.90412 38.6367 5.99361C38.7262 6.07978 38.9251 6.15601 39.2333 6.2223L40.6651 6.50071C41.4009 6.64654 41.9345 6.90009 42.266 7.26136C42.6007 7.61932 42.7201 8.09328 42.6239 8.68324C42.5378 9.18703 42.3157 9.62287 41.9577 9.99077C41.6031 10.3587 41.1507 10.6437 40.6005 10.8459C40.0536 11.0447 39.4487 11.1442 38.7859 11.1442C37.6656 11.1442 36.8204 10.9188 36.2504 10.468C35.6836 10.014 35.4184 9.41241 35.4549 8.66335L37.8214 8.60369C37.8313 8.88542 37.9258 9.09754 38.1048 9.24006C38.2871 9.37926 38.534 9.45218 38.8455 9.45881C39.1869 9.46544 39.4819 9.39418 39.7305 9.24503C39.979 9.09588 40.1183 8.91193 40.1481 8.69318C40.168 8.55066 40.1199 8.43963 40.0039 8.36009C39.8912 8.28054 39.6808 8.20928 39.3725 8.14631L38.0799 7.89276C37.3375 7.75024 36.8005 7.48177 36.4691 7.08736C36.141 6.68963 36.0283 6.18253 36.131 5.56605C36.2172 5.07552 36.4194 4.65956 36.7376 4.31818C37.0591 3.97348 37.4783 3.71165 37.9954 3.53267C38.5157 3.35369 39.109 3.2642 39.7752 3.2642C40.8424 3.2642 41.6478 3.4813 42.1914 3.91548C42.7383 4.34635 42.9786 4.93963 42.9123 5.69531ZM53.1177 3.89062C53.1442 3.5161 53.0448 3.22609 52.8194 3.0206C52.5974 2.8151 52.246 2.71236 51.7654 2.71236C51.4473 2.71236 51.1755 2.75379 50.9501 2.83665C50.7247 2.91619 50.5474 3.02888 50.4181 3.17472C50.2889 3.31723 50.2077 3.48295 50.1745 3.67188C50.1447 3.82102 50.153 3.9536 50.1994 4.0696C50.2458 4.18561 50.327 4.28835 50.443 4.37784C50.5623 4.46733 50.7098 4.54522 50.8855 4.61151C51.0645 4.67779 51.265 4.7358 51.487 4.78551L52.3223 4.98438C52.8062 5.09375 53.2254 5.23958 53.5801 5.42188C53.938 5.60085 54.228 5.81794 54.4501 6.07315C54.6722 6.32505 54.8246 6.61506 54.9075 6.94318C54.9904 7.27131 54.997 7.6392 54.9274 8.04688C54.8213 8.68987 54.5678 9.24171 54.1667 9.70241C53.769 10.1631 53.2486 10.5161 52.6056 10.7614C51.966 11.0066 51.2219 11.1293 50.3734 11.1293C49.5249 11.1293 48.804 11.0017 48.2108 10.7464C47.6208 10.4879 47.1932 10.0985 46.9281 9.57812C46.6629 9.05777 46.5917 8.40152 46.7143 7.60938H49.0659C49.0294 7.9375 49.0708 8.21094 49.1902 8.42969C49.3128 8.64844 49.5017 8.81416 49.7569 8.92685C50.0121 9.03954 50.3204 9.09588 50.6816 9.09588C51.0131 9.09588 51.3031 9.05114 51.5517 8.96165C51.8036 8.87216 52.0041 8.74787 52.1532 8.58878C52.3057 8.42969 52.3985 8.2474 52.4316 8.0419C52.4648 7.85298 52.4333 7.68892 52.3372 7.54972C52.2444 7.41051 52.0853 7.28954 51.8599 7.18679C51.6378 7.08404 51.3462 6.99124 50.9849 6.90838L49.9657 6.6598C49.1239 6.45431 48.4859 6.12618 48.0517 5.67543C47.6208 5.22467 47.4683 4.61316 47.5943 3.84091C47.7003 3.20786 47.9622 2.65436 48.3798 2.1804C48.8007 1.70644 49.3327 1.33854 49.9757 1.0767C50.622 0.811553 51.3329 0.678977 52.1085 0.678977C52.8973 0.678977 53.5602 0.81321 54.0971 1.08168C54.6374 1.34683 55.0268 1.72135 55.2654 2.20526C55.5074 2.68584 55.577 3.24763 55.4743 3.89062H53.1177ZM58.8549 6.64489L58.1291 11H55.698L57.3883 0.818182H59.7399L59.0936 4.76562H59.1781C59.4234 4.29498 59.7647 3.92708 60.2022 3.66193C60.6397 3.39678 61.1468 3.2642 61.7235 3.2642C62.2538 3.2642 62.698 3.38352 63.0559 3.62216C63.4139 3.85748 63.6674 4.19058 63.8166 4.62145C63.9657 5.05232 63.9922 5.55611 63.8961 6.13281L63.0808 11H60.6497L61.3855 6.61009C61.4518 6.18584 61.3971 5.8544 61.2214 5.61577C61.0458 5.37713 60.764 5.25781 60.3762 5.25781C60.121 5.25781 59.8857 5.31416 59.6703 5.42685C59.4582 5.53622 59.2808 5.69366 59.1383 5.89915C58.9958 6.10464 58.9013 6.35322 58.8549 6.64489ZM68.1431 11.1442C67.3377 11.1442 66.6732 10.9785 66.1495 10.647C65.6291 10.3156 65.2629 9.85322 65.0508 9.25994C64.8387 8.66667 64.7972 7.97727 64.9265 7.19176C65.0558 6.40956 65.3226 5.72348 65.7269 5.13352C66.1313 4.54356 66.6483 4.08452 67.2781 3.75639C67.9078 3.42827 68.622 3.2642 69.4208 3.2642C70.2229 3.2642 70.8841 3.42992 71.4045 3.76136C71.9281 4.0928 72.296 4.55516 72.5082 5.14844C72.7236 5.74171 72.7667 6.43277 72.6374 7.22159C72.5082 8.00379 72.2397 8.68987 71.832 9.27983C71.4244 9.86648 70.9073 10.3239 70.2809 10.652C69.6545 10.9801 68.9419 11.1442 68.1431 11.1442ZM68.4165 9.30966C68.7148 9.30966 68.9817 9.22017 69.217 9.04119C69.4556 8.86222 69.6561 8.61198 69.8185 8.29048C69.9809 7.96899 70.0969 7.59612 70.1665 7.17188C70.2362 6.75426 70.2428 6.38802 70.1864 6.07315C70.1334 5.75497 70.0207 5.50805 69.8484 5.33239C69.676 5.15341 69.4424 5.06392 69.1474 5.06392C68.8491 5.06392 68.5806 5.15507 68.342 5.33736C68.1033 5.51634 67.9028 5.76657 67.7404 6.08807C67.5813 6.40625 67.467 6.77912 67.3974 7.20668C67.3278 7.62429 67.3195 7.99053 67.3725 8.3054C67.4255 8.62027 67.5399 8.86719 67.7156 9.04616C67.8912 9.22183 68.1249 9.30966 68.4165 9.30966ZM72.7891 13.8636L74.549 3.36364H76.9553L76.7415 4.67116H76.8161C76.9486 4.43916 77.1243 4.21544 77.343 4C77.5651 3.78456 77.8319 3.6089 78.1435 3.47301C78.455 3.33381 78.8113 3.2642 79.2124 3.2642C79.7427 3.2642 80.215 3.40341 80.6293 3.68182C81.0436 3.96023 81.3452 4.38944 81.5341 4.96946C81.723 5.54948 81.7429 6.28859 81.5938 7.18679C81.4512 8.05185 81.1927 8.77604 80.8182 9.35938C80.447 9.94271 80.0062 10.3802 79.4957 10.6719C78.9853 10.9635 78.45 11.1094 77.8899 11.1094C77.5054 11.1094 77.1806 11.0464 76.9155 10.9205C76.6536 10.7945 76.4465 10.6288 76.294 10.4233C76.1416 10.2178 76.0355 9.9974 75.9759 9.76207H75.9062L75.2301 13.8636H72.7891ZM76.294 7.18182C76.2277 7.5928 76.2244 7.95076 76.2841 8.25568C76.3438 8.56061 76.4647 8.79759 76.647 8.96662C76.8326 9.13234 77.0729 9.2152 77.3679 9.2152C77.6662 9.2152 77.9313 9.13234 78.1634 8.96662C78.3987 8.79759 78.5959 8.56061 78.755 8.25568C78.9141 7.95076 79.0301 7.5928 79.103 7.18182C79.166 6.77083 79.1676 6.41454 79.108 6.11293C79.0516 5.81132 78.9339 5.57765 78.755 5.41193C78.576 5.24621 78.3357 5.16335 78.0341 5.16335C77.7391 5.16335 77.4706 5.24455 77.2287 5.40696C76.9901 5.56937 76.7912 5.80137 76.6321 6.10298C76.473 6.40459 76.3603 6.7642 76.294 7.18182Z" fill="black"/>
</svg>
